PathFileType	4	(X/Y/Z)	./resultDataOpenSim/trcMotMarkerGrf/sub09/qtm-05-03.trc
DataRate	CameraRate	NumFrames	NumMarkers	Units	OrigDataRate	OrigDataStartFrame	OrigNumFrames
250.000000	250.000000	8	24	m	250.000000	64	511
Frame#	Time	L.Toe.Tip			R.Toe.Tip			L.Ankle.Lat			R.Ankle.Lat			L.Ankle.Med			R.Ankle.Med			L.Heel			R.Heel			L.Knee.Lat			R.Knee.Lat			L.Knee.Med			R.Knee.Med			L.Thigh.Upper			R.Thigh.Upper			L.ASIS			R.ASIS			V.Sacral			L.Acromium			R.Acromium			C7			L.Elbow			R.Elbow			L.Wrist.Lat			R.Wrist.Lat
		X1	Y1	Z1	X2	Y2	Z2	X3	Y3	Z3	X4	Y4	Z4	X5	Y5	Z5	X6	Y6	Z6	X7	Y7	Z7	X8	Y8	Z8	X9	Y9	Z9	X10	Y10	Z10	X11	Y11	Z11	X12	Y12	Z12	X13	Y13	Z13	X14	Y14	Z14	X15	Y15	Z15	X16	Y16	Z16	X17	Y17	Z17	X18	Y18	Z18	X19	Y19	Z19	X20	Y20	Z20	X21	Y21	Z21	X22	Y22	Z22	X23	Y23	Z23	X24	Y24	Z24

64	0.252	-1.4032622	0.094791548	-0.039618651	-0.68397507	0.039725801	0.1216162	-1.4277067	0.25041461	-0.071305717	-0.83109823	0.053708856	0.14713197	-1.4039238	0.22992788	0.020863182	-0.82029608	0.090312024	0.056884261	-1.4900892	0.29352074	-0.019831306	-0.89858971	0.030857624	0.097039062	-1.0512626	0.41645494	-0.096487316	-0.78723229	0.5054158	0.20385087	-1.0416012	0.40122654	0.027252697	-0.79953416	0.49227155	0.077302625	-1.0193122	0.82303469	-0.11358913	-1.0026186	0.85086867	0.25836275	-0.92958049	0.90859706	-0.056709503	-0.92608754	0.93440446	0.18195111	-1.0968635	0.97869179	0.06142662	-0.91437467	1.3814729	-0.081724889	-0.95419135	1.3720985	0.24525191	-1.0025266	1.4284986	0.079471604	-1.0262098	1.0251829	-0.1751406	-1.0883943	1.0312426	0.30613753	-0.78447769	0.9002859	-0.14050815	-0.96961638	0.78564338	0.32083619
65	0.256	-1.3903872	0.097687699	-0.039995636	-0.68389668	0.039704079	0.12141965	-1.4149352	0.25331996	-0.070642383	-0.83112623	0.053772717	0.14714098	-1.3915697	0.23235871	0.021535846	-0.82015896	0.090299927	0.056837963	-1.4771065	0.29616918	-0.0192004	-0.89863773	0.030870209	0.097015456	-1.0381031	0.41711966	-0.095718676	-0.78368017	0.5050632	0.2037931	-1.0301121	0.40181815	0.028284007	-0.79668641	0.49195792	0.077455078	-1.0129283	0.82385386	-0.11297673	-0.99865319	0.85203994	0.25836221	-0.92401467	0.9097465	-0.056305085	-0.9201519	0.93566058	0.18227346	-1.0911525	0.98005113	0.06199178	-0.9083984	1.3824409	-0.081409689	-0.94751115	1.3732344	0.24567151	-0.99617657	1.4297739	0.08007908	-1.0209757	1.0264439	-0.17409501	-1.0808218	1.0318312	0.30716535	-0.7810814	0.89842438	-0.14004906	-0.95982165	0.78699566	0.32083428
66	0.26	-1.3771277	0.10032616	-0.040259918	-0.68382831	0.039689023	0.12123005	-1.4019285	0.25589359	-0.069970469	-0.83118736	0.053827045	0.14721898	-1.3790925	0.23433871	0.022418566	-0.82001519	0.09028771	0.056807382	-1.4640593	0.2984644	-0.018691932	-0.89868902	0.030880525	0.096992086	-1.0249677	0.41796229	-0.094906418	-0.78022689	0.50473595	0.20379821	-1.0176442	0.40254146	0.02929627	-0.79395218	0.49162719	0.077703927	-1.0064586	0.82480307	-0.1123391	-0.99447129	0.85329311	0.25839738	-0.91848064	0.91099104	-0.055947426	-0.91488097	0.93688692	0.18245445	-1.0854479	0.98145827	0.062582888	-0.90242754	1.3834766	-0.081110287	-0.94081893	1.3744435	0.24605486	-0.98985135	1.4311087	0.080672499	-1.0158241	1.0277293	-0.17305632	-1.0732122	1.032487	0.30810323	-0.77777617	0.89661098	-0.1396258	-0.94998268	0.78846197	0.32078256
67	0.264	-1.3635128	0.10272264	-0.04041469	-0.68378349	0.03967844	0.12106186	-1.3887069	0.25814237	-0.069316234	-0.83126761	0.053857477	0.14737211	-1.3665813	0.23582931	0.023533522	-0.81987922	0.090282315	0.056798398	-1.451149	0.30047336	-0.018058927	-0.8987468	0.030891639	0.096975706	-1.0118802	0.41899895	-0.094028907	-0.7769023	0.50444537	0.20388363	-1.0043177	0.40342112	0.030316704	-0.79128469	0.49129947	0.077988826	-1.0001465	0.82588055	-0.11178594	-0.9892481	0.85473507	0.25867235	-0.91296221	0.9123386	-0.055622076	-0.90989037	0.93810998	0.18256066	-1.079754	0.98290899	0.063203696	-0.89648429	1.3845879	-0.080830219	-0.93412221	1.3757276	0.24640893	-0.98355909	1.4324995	0.081254005	-1.0107372	1.0290569	-0.1720201	-1.0655105	1.033207	0.30897549	-0.77456341	0.89485459	-0.13923637	-0.94012726	0.79003587	0.32068598
68	0.268	-1.3495556	0.10489418	-0.040455097	-0.68376574	0.039672212	0.12092872	-1.3753061	0.26008159	-0.068696384	-0.83136368	0.053868292	0.14757381	-1.3542687	0.23700739	0.024803162	-0.81976178	0.090291897	0.056815998	-1.4383359	0.30221413	-0.017278109	-0.89881024	0.030906134	0.096968833	-0.99886104	0.42023947	-0.09309842	-0.77369544	0.50416515	0.20405903	-0.99026149	0.404474	0.031359724	-0.78863443	0.49098898	0.07825756	-0.99409284	0.8270845	-0.11135936	-0.98303703	0.85633967	0.25918161	-0.90744716	0.91379928	-0.055316001	-0.90468099	0.93936843	0.18268322	-1.0740839	0.9844169	0.0638269	-0.89058398	1.3857739	-0.080566482	-0.92744048	1.377085	0.24674634	-0.97729974	1.4339354	0.081824184	-1.0057109	1.0304445	-0.17102103	-1.057755	1.034005	0.30981791	-0.77144526	0.89316077	-0.13887716	-0.93029514	0.79171896	0.32055543
69	0.272	-1.3352689	0.10683997	-0.040371108	-0.6837699	0.039669677	0.12083692	-1.3617882	0.26171954	-0.068103147	-0.83144857	0.05388965	0.14772631	-1.3420655	0.23818926	0.026001214	-0.81966191	0.090319535	0.056863893	-1.4254351	0.30365384	-0.01649327	-0.89887457	0.030924178	0.096970147	-0.98589121	0.4216639	-0.092178302	-0.77054919	0.5038465	0.20430342	-0.97592534	0.40570637	0.032423514	-0.78597353	0.49070456	0.078498637	-0.98817815	0.82841529	-0.11100591	-0.97645519	0.85798588	0.2597861	-0.90195129	0.91537059	-0.055024214	-0.89912437	0.94066334	0.1828613	-1.0684551	0.9859896	0.064414898	-0.88473751	1.387031	-0.080313105	-0.92079282	1.3785114	0.24707895	-0.9710636	1.4354025	0.082385993	-1.0007584	1.0319039	-0.17008408	-1.050054	1.0349012	0.31067769	-0.76842425	0.89153496	-0.13854149	-0.92052682	0.79351463	0.32040184
70	0.276	-1.3206952	0.10854335	-0.040144444	-0.68378798	0.039669235	0.12078473	-1.3482125	0.2630688	-0.067520317	-0.83149991	0.053948884	0.14775043	-1.3291409	0.23957526	0.026792412	-0.81957216	0.090365428	0.056942708	-1.4123447	0.30475182	-0.015812652	-0.898935	0.030945737	0.096975327	-0.97288555	0.4232415	-0.091405065	-0.76743586	0.50346351	0.20457447	-0.9618932	0.40713682	0.033497614	-0.78330651	0.49045779	0.078728472	-0.98225437	0.82986801	-0.11065867	-0.96995366	0.85957808	0.26038826	-0.89651423	0.9170335	-0.054751272	-0.8933974	0.94197141	0.18308204	-1.0628746	0.98761408	0.064958947	-0.87895591	1.3883545	-0.080064849	-0.91419015	1.3800036	0.24741767	-0.96484405	1.4368982	0.082942895	-0.99590251	1.0334409	-0.16918397	-1.042476	1.0358985	0.31156967	-0.76550301	0.88998449	-0.13822734	-0.91083739	0.7954289	0.32022905
71	0.28	-1.3059158	0.10998217	-0.039741077	-0.6838164	0.039669558	0.12076623	-1.3345663	0.26416008	-0.06693945	-0.83153472	0.054032061	0.1476856	-1.314656	0.24110296	0.026996072	-0.81948681	0.090430871	0.057048087	-1.3990952	0.3054867	-0.015248271	-0.89899013	0.030972415	0.096978178	-0.95970336	0.42496449	-0.090951637	-0.76447712	0.50307552	0.20486691	-0.94829061	0.40880532	0.034554295	-0.78068398	0.49025811	0.078985766	-0.97628009	0.83143297	-0.11029003	-0.96366818	0.8610898	0.26096018	-0.89115243	0.91876559	-0.054499672	-0.8876711	0.94327604	0.18332541	-1.0573362	0.98926873	0.065480414	-0.87323838	1.3897368	-0.079817203	-0.90762947	1.3815586	0.24776695	-0.95864425	1.4384324	0.083495203	-0.99117464	1.035058	-0.16829449	-1.0350274	1.0369832	0.31247473	-0.76268071	0.88851481	-0.13794079	-0.90120688	0.797472	0.32003834
